# xmcd CD database file
# Generated: Tue Aug 10 12:53:36 2004 by KSCD
# 
# Track frame offsets:
#       150
#       18402
#       47792
#       67257
#       87576
#       109040
#       129089
#       153031
#       173767
#       195150
#       215408
#       236764
#       259162
#       277984
#       295547
#       315582
#       333948
#
# Disc length: 4759 seconds
#
# Revision: 1
# Processed by: cddbd v1.5.1PL0 Copyright (c) Steve Scherf et al.
# Submitted via: Kscd 1.3.3
#
DISCID=e6129511
DTITLE=ginuine&case - best man
DYEAR=1900
DGENRE=
TTITLE0=
TTITLE1=bestman
TTITLE2=
TTITLE3=
TTITLE4=
TTITLE5=
TTITLE6=
TTITLE7=
TTITLE8=
TTITLE9=
TTITLE10=
TTITLE11=
TTITLE12=
TTITLE13=
TTITLE14=
TTITLE15=
TTITLE16=
EXTD=
EXTT0=
EXTT1=
EXTT2=
EXTT3=
EXTT4=
EXTT5=
EXTT6=
EXTT7=
EXTT8=
EXTT9=
EXTT10=
EXTT11=
EXTT12=
EXTT13=
EXTT14=
EXTT15=
EXTT16=
PLAYORDER=
